# xmcd
#
# Track frame offsets: 
#        150
#        14653
#        31087
#        45228
#        61283
#        77832
#        93639
#        110077
#        124927
#        142565
#        157027
#        173131
#        184215
#        201782
#        216145
#        231185
#        248356
#        272035
#        286877
#        302272
#        330316
#
# Disc length: 4672 seconds
#
# Revision: 0
# Processed by: cddbd v1.5.2PL0 Copyright (c) Steve Scherf et al.
# Submitted via: ExactAudioCopy v1.0b3
#
DISCID=18123e15
DTITLE=Various Artist - Deutsche DJ Charts Vol. 4 - CD 2
DYEAR=1900
DGENRE=
TTITLE0=Cuba Club - Cuba (Sunset Crew Radio) 
TTITLE1=DJ Teeno - It Takes Me Higher (Radio Edit) 
TTITLE2=Sunfreakz - Riding The Wave (Radio Edit) 
TTITLE3=Mauro Milano - Baby It's You (Todos In Todos) (Grand Club Radi
TTITLE3=o Edit)
TTITLE4=Ian Carey and Mochico Feat. Miss Bunty - Say What You Want (Spen
TTITLE4=cer and Hill Remix Edit) 
TTITLE5=Jordy and Baccano - The One and Only (Radio Mix) 
TTITLE6=Flat Pack - Sweet Child O' Mine (Mylo Club Radio Mix) 
TTITLE7=Antoine Clamaran Feat. Emily Chick - Keep On Tryin' (Vox Remix
TTITLE7=Cut) 
TTITLE8=Patric La Funk - Sundrops (Radio Cut) 
TTITLE9=Supafly Vs. Fishbowl - Let's Get Down (Full Intention Radio Ed
TTITLE9=it) 
TTITLE10=Armand Van Helden - Funk Phenomena 2K (Radio Cut) 
TTITLE11=Scape Feat. D-Empress - Be My Friend (Radio Edit) 
TTITLE12=Primate C - Be Free With Your Love (Verdez Remix Edit) 
TTITLE13=The Caramel Club - Mama Say Mama Sa (Hi_Tack Radio Edit) 
TTITLE14=Outwork Feat. Mr. Gee - Elektro (Outwork Edit) 
TTITLE15=Hightower - Funk On Fire (Radio Edit) 
TTITLE16=Tocadisco - Music Loud (Original Mix) 
TTITLE17=Electrik Bet - Strip Girl (Streap Girl) (Radio Edit) 
TTITLE18=Klaas - Confession (Radio Edit) 
TTITLE19=Krafft - Rock Da House (Radio Mix) 
TTITLE20=Bonus Video
EXTD=
EXTT0=
EXTT1=
EXTT2=
EXTT3=
EXTT4=
EXTT5=
EXTT6=
EXTT7=
EXTT8=
EXTT9=
EXTT10=
EXTT11=
EXTT12=
EXTT13=
EXTT14=
EXTT15=
EXTT16=
EXTT17=
EXTT18=
EXTT19=
EXTT20=
PLAYORDER=
